<svg width="24px" viewBox="0 0 16 16" fill="currentColor" xmlns="http://www.w3.org/2000/svg">
<path fill-rule="evenodd" clip-rule="evenodd" d="M1.25 4.00015C1.25 3.58594 1.58579 3.25015 2 3.25015H14C14.4142 3.25015 14.75 3.58594 14.75 4.00015C14.75 4.41437 14.4142 4.75015 14 4.75015H2C1.58579 4.75015 1.25 4.41437 1.25 4.00015Z" />
<path fill-rule="evenodd" clip-rule="evenodd" d="M6.66659 2.0835C6.51188 2.0835 6.3635 2.14495 6.25411 2.25435C6.14471 2.36375 6.08325 2.51212 6.08325 2.66683V3.25016H9.91659V2.66683C9.91659 2.51212 9.85513 2.36375 9.74573 2.25435C9.63634 2.14495 9.48796 2.0835 9.33325 2.0835H6.66659ZM11.4166 3.25016V2.66683C11.4166 2.11429 11.1971 1.58439 10.8064 1.19369C10.4157 0.802989 9.88579 0.583496 9.33325 0.583496H6.66659C6.11405 0.583496 5.58415 0.802989 5.19345 1.19369C4.80275 1.58439 4.58325 2.11429 4.58325 2.66683V3.25016H3.33325C2.91904 3.25016 2.58325 3.58595 2.58325 4.00016V13.3335C2.58325 13.886 2.80275 14.4159 3.19345 14.8066C3.58415 15.1973 4.11405 15.4168 4.66659 15.4168H11.3333C11.8858 15.4168 12.4157 15.1973 12.8064 14.8066C13.1971 14.4159 13.4166 13.886 13.4166 13.3335V4.00016C13.4166 3.58595 13.0808 3.25016 12.6666 3.25016H11.4166ZM4.08325 4.75016V13.3335C4.08325 13.4882 4.14471 13.6366 4.25411 13.746C4.3635 13.8554 4.51188 13.9168 4.66659 13.9168H11.3333C11.488 13.9168 11.6363 13.8554 11.7457 13.746C11.8551 13.6366 11.9166 13.4882 11.9166 13.3335V4.75016H4.08325Z" />
<path fill-rule="evenodd" clip-rule="evenodd" d="M6.66675 6.5835C7.08096 6.5835 7.41675 6.91928 7.41675 7.3335V11.3335C7.41675 11.7477 7.08096 12.0835 6.66675 12.0835C6.25253 12.0835 5.91675 11.7477 5.91675 11.3335V7.3335C5.91675 6.91928 6.25253 6.5835 6.66675 6.5835Z" />
<path fill-rule="evenodd" clip-rule="evenodd" d="M9.33325 6.5835C9.74747 6.5835 10.0833 6.91928 10.0833 7.3335V11.3335C10.0833 11.7477 9.74747 12.0835 9.33325 12.0835C8.91904 12.0835 8.58325 11.7477 8.58325 11.3335V7.3335C8.58325 6.91928 8.91904 6.5835 9.33325 6.5835Z" />
</svg>